Motion_mu12
version=1
nRows=15
nColumns=43
inDegrees=yes
endheader
time	pelvis_tilt	pelvis_list	pelvis_rotation	pelvis_tx	pelvis_ty	pelvis_tz	hip_flexion_r	hip_adduction_r	hip_rotation_r	knee_angle_r	ankle_angle_r	subtalar_angle_r	mtp_angle_r	hip_flexion_l	hip_adduction_l	hip_rotation_l	knee_angle_l	ankle_angle_l	subtalar_angle_l	mtp_angle_l	lumbar_extension	lumbar_bending	lumbar_rotation	neck_flexion	neck_lateral_bending	neck_rotation	arm_flex_r	arm_add_r	arm_rot_r	elbow_flex_r	pro_sup_r	wrist_flex_r	wrist_dev_r	hand_finger_flex_r	arm_flex_l	arm_add_l	arm_rot_l	elbow_flex_l	pro_sup_l	wrist_flex_l	wrist_dev_l	hand_finger_flex_l
      5.07000000	     -0.11283475	     26.77229470	    -94.01101293	      0.00821822	      1.91693480	      0.99515537	     49.51473238	      0.76541095	     -0.26187993	    -48.09560683	    -21.11373506	    -14.83947241	     -7.06670333	     49.65196259	     -3.63311488	      5.59166281	    -40.34262344	    -24.31868762	     -0.45822052	     -2.95228828	    -31.00125032	      1.39186873	     -1.66610112	     -7.29795179	     -0.42589285	     -2.33920081	   -212.84760183	   -151.37719487	   -189.73148028	    110.83873320	    173.82917148	    -30.04235345	    -24.99999983	     68.70311361	    -37.69793452	    -15.09371801	    -13.69547343	    101.03807490	    180.66610007	    -63.79115964	    -24.69402410	     73.24737897
      5.07250000	     -0.16769995	     26.64570569	    -93.97215630	      0.00798282	      1.91796221	      0.99624958	     48.90194267	      0.70784807	     -0.46544675	    -47.73295066	    -21.22019089	    -14.73691258	     -7.13352339	     49.07049154	     -3.69030824	      5.29429015	    -39.86120620	    -24.57317931	     -0.29557363	     -2.95272647	    -30.92677183	      1.43709152	     -1.77453666	     -7.50175212	     -0.51010918	     -2.16682756	   -212.42994689	   -151.24229358	   -189.25636197	    110.35597630	    173.73269737	    -30.14085149	    -24.99999983	     68.71912198	    -37.53565081	    -15.17094640	    -13.58544799	    100.58934703	    180.56329519	    -63.78628324	    -24.60785243	     73.20494803
      5.07500000	     -0.19085236	     26.76850190	    -93.96961188	      0.00785430	      1.91833448	      0.99675824	     48.66189976	      0.69135021	     -0.54793108	    -47.51330271	    -21.19170403	    -14.72938197	     -7.13896234	     48.83381756	     -3.66320027	      5.21263315	    -39.52842944	    -24.54824908	     -0.26907129	     -2.94341837	    -30.63765954	      1.45766802	     -1.75002046	     -7.25753200	     -0.41603520	     -2.15956049	   -212.26836197	   -151.21249409	   -189.09570606	    110.01702444	    173.72589458	    -30.11567844	    -24.99999983	     68.72852743	    -37.40497544	    -15.20354645	    -13.46530175	    100.31521781	    180.57695376	    -63.72455549	    -24.60909353	     73.19898589
      5.07750000	     -0.26173735	     26.67055341	    -93.90553237	      0.00760790	      1.91931779	      0.99782289	     48.08330038	      0.64175667	     -0.77511251	    -47.13908269	    -21.29767062	    -14.61285305	     -7.16934502	     48.28941525	     -3.71641700	      4.94518890	    -39.04229867	    -24.82231654	     -0.07322425	     -2.95428375	    -30.52793717	      1.53047616	     -1.84839674	     -7.50225198	     -0.53045603	     -2.01551064	   -211.87188837	   -151.09186771	   -188.61872628	    109.55638268	    173.63381726	    -30.19046057	    -24.99999983	     68.74365911	    -37.21655909	    -15.30066040	    -13.32530400	     99.83746899	    180.48889057	    -63.71275255	    -24.49976781	     73.16415396
      5.08000000	     -0.28683724	     26.79330516	    -93.90185911	      0.00745489	      1.91971255	      0.99833566	     47.84456654	      0.62901207	     -0.86472559	    -46.91083432	    -21.26740145	    -14.60128742	     -7.16642706	     48.05593526	     -3.69127011	      4.87843141	    -38.70505650	    -24.80866709	     -0.03596073	     -2.94880481	    -30.23947553	      1.55031359	     -1.81670300	     -7.27257011	     -0.45283281	     -2.01196765	   -211.70459158	   -151.07277935	   -188.47267410	    109.19233860	    173.62871198	    -30.15962257	    -24.99999983	     68.75561443	    -37.08409881	    -15.33681447	    -13.20247095	     99.56631695	    180.50086060	    -63.65665324	    -24.49191538	     73.15777065
      5.08250000	     -0.36981946	     26.70583078	    -93.82824918	      0.00719691	      1.92069910	      0.99939490	     47.27433613	      0.59314944	     -1.09700487	    -46.52288966	    -21.35739934	    -14.47464976	     -7.16669623	     47.52531075	     -3.75284319	      4.62481451	    -38.20222628	    -25.11842030	      0.19596612	     -2.97641454	    -30.11748101	      1.64020388	     -1.90035739	     -7.53587138	     -0.59984365	     -1.89619144	   -211.31557932	   -150.96246422	   -188.00162975	    108.72772976	    173.54371359	    -30.22800201	    -24.99999983	     68.78197671	    -36.87246910	    -15.44815878	    -13.03167358	     99.06259274	    180.41499862	    -63.65809692	    -24.35885240	     73.11758704
      5.08500000	     -0.40192428	     26.81398275	    -93.81885047	      0.00697350	      1.92121467	      0.99985100	     47.01464546	      0.58936657	     -1.20870005	    -46.25127485	    -21.32192323	    -14.45333065	     -7.15338471	     47.26730051	     -3.73374801	      4.54619795	    -37.81762425	    -25.13411477	      0.25981874	     -2.97741839	    -29.85550714	      1.66435159	     -1.86434647	     -7.33519591	     -0.54361687	     -1.88890270	   -211.12549571	   -150.92996753	   -187.78932742	    108.37183352	    173.52932604	    -30.21345952	    -24.99999983	     68.79937597	    -36.68514337	    -15.52246846	    -12.92850346	     98.75076451	    180.41439141	    -63.61224390	    -24.32494683	     73.10409632
      5.08750000	     -0.49602897	     26.71073728	    -93.75399963	      0.00674028	      1.92219784	      1.00096373	     46.44176123	      0.57809843	     -1.41933083	    -45.88749538	    -21.39137908	    -14.32775776	     -7.12255800	     46.73590907	     -3.80919260	      4.30132664	    -37.34181258	    -25.48398191	      0.52539860	     -3.02145780	    -29.75046010	      1.75760403	     -1.92807542	     -7.59044748	     -0.71385235	     -1.79220878	   -210.73766271	   -150.83695965	   -187.38822863	    107.86429771	    173.44617770	    -30.30031578	    -24.99999983	     68.84214127	    -36.50698169	    -15.60419939	    -12.72757309	     98.27589404	    180.31774312	    -63.66489068	    -24.16522790	     73.04728987
      5.09000000	     -0.52129306	     26.84205205	    -93.76032592	      0.00643586	      1.92259076	      1.00144654	     46.23380794	      0.58800369	     -1.51539198	    -45.65643393	    -21.34966062	    -14.31659080	     -7.10603686	     46.52381022	     -3.78931731	      4.24623713	    -37.00201425	    -25.48097465	      0.57069350	     -3.02348902	    -29.46333805	      1.76923537	     -1.87383598	     -7.35283422	     -0.65656293	     -1.79951549	   -210.57946086	   -150.86260823	   -187.22946142	    107.53132936	    173.44556757	    -30.27301493	    -24.99999983	     68.85670314	    -36.37278353	    -15.65222010	    -12.61508975	     97.98802107	    180.33489468	    -63.61159072	    -24.15186618	     73.03810901
      5.09250000	     -0.62341992	     26.77605740	    -93.70494840	      0.00612070	      1.92359330	      1.00243405	     45.69546452	      0.60728798	     -1.72123332	    -45.25279055	    -21.41147418	    -14.18787892	     -7.05187869	     46.02572069	     -3.89656630	      3.96535414	    -36.47224623	    -25.88352244	      0.86947741	     -3.07828213	    -29.32625613	      1.86732694	     -1.91594560	     -7.60633020	     -0.86464456	     -1.71735797	   -210.19232776	   -150.75626461	   -186.78382555	    107.03258140	    173.37298733	    -30.36804695	    -24.99999983	     68.89649052	    -36.12971660	    -15.76056256	    -12.42149685	     97.46825163	    180.24663557	    -63.65627260	    -23.98770910	     72.96999641
      5.09500000	     -0.65293286	     26.90905090	    -93.71342627	      0.00582026	      1.92402183	      1.00288276	     45.49721402	      0.62578123	     -1.81306511	    -45.02247122	    -21.36874827	    -14.17650390	     -7.02918916	     45.81866462	     -3.88098664	      3.90940035	    -36.12000824	    -25.89214168	      0.92439458	     -3.08028494	    -29.04486367	      1.88185591	     -1.85926147	     -7.37707464	     -0.81113957	     -1.72635745	   -210.02296874	   -150.77599434	   -186.61906706	    106.70623812	    173.37202408	    -30.34742371	    -24.99999983	     68.90970858	    -35.98381281	    -15.80180116	    -12.30829595	     97.17930630	    180.26095601	    -63.60504529	    -23.97008716	     72.95712689
      5.09750000	     -0.76303262	     26.85413285	    -93.65984097	      0.00548009	      1.92503274	      1.00382466	     44.97595921	      0.66597039	     -2.00603992	    -44.62064145	    -21.43428390	    -14.04024248	     -6.94787277	     45.34358472	     -4.00311978	      3.62822747	    -35.57985128	    -26.33183935	      1.25491512	     -3.12268288	    -28.90257189	      1.98351511	     -1.89690160	     -7.63523835	     -1.03027343	     -1.64550798	   -209.62089119	   -150.66986191	   -186.16399911	    106.19319273	    173.29810976	    -30.46798115	    -24.99999983	     68.94364868	    -35.74485271	    -15.89179900	    -12.12608242	     96.65923330	    180.16481072	    -63.66143744	    -23.79419084	     72.87655950
      5.10000000	     -0.79687721	     26.99164671	    -93.66796276	      0.00515154	      1.92546106	      1.00424101	     44.78766663	      0.69674855	     -2.10049601	    -44.37459965	    -21.38877907	    -14.02309916	     -6.91564789	     45.12895397	     -3.99030595	      3.57563508	    -35.19695064	    -26.34574706	      1.32094579	     -3.11841317	    -28.61778995	      1.99707987	     -1.84895987	     -7.40243385	     -0.97740133	     -1.65446333	   -209.44255332	   -150.68447403	   -185.97628348	    105.86105322	    173.29574018	    -30.45592092	    -24.99999983	     68.95611542	    -35.57671269	    -15.93220864	    -12.01538769	     96.34633691	    180.17835831	    -63.60608368	    -23.77176713	     72.86054139
      5.10250000	     -0.90214667	     26.97315142	    -93.61941442	      0.00486683	      1.92638662	      1.00512222	     44.33389677	      0.73742561	     -2.27403014	    -43.99248504	    -21.44857891	    -13.86612950	     -6.81850022	     44.69950256	     -4.09256674	      3.32458372	    -34.67495197	    -26.77738515	      1.65310966	     -3.13243761	    -28.43892118	      2.11078282	     -1.88866725	     -7.65114151	     -1.20184440	     -1.58536238	   -209.05693471	   -150.58990098	   -185.52833838	    105.39187140	    173.23527421	    -30.57714187	    -24.99999983	     68.97845160	    -35.35881144	    -16.00132620	    -11.83713684	     95.83057183	    180.10298001	    -63.63313616	    -23.62265946	     72.78784922
      5.10500000	     -0.93343266	     27.10240489	    -93.63200610	      0.00458462	      1.92683502	      1.00551995	     44.16021070	      0.75885063	     -2.35890177	    -43.78151254	    -21.40484748	    -13.84204373	     -6.78350126	     44.50548389	     -4.07189580	      3.29890499	    -34.32805897	    -26.79038897	      1.71970422	     -3.12048154	    -28.16678777	      2.12652789	     -1.82522278	     -7.43483208	     -1.14832448	     -1.59791908	   -208.87978211	   -150.62845117	   -185.38161219	    105.03248440	    173.23814468	    -30.55998435	    -24.99999983	     68.98916195	    -35.20853855	    -16.02116616	    -11.74475304	     95.55360429	    180.11076578	    -63.58314269	    -23.59951660	     72.77335960
